<svg xmlns="http://www.w3.org/2000/svg" width="360" height="320" viewBox="0 0 360 320" fill="none">
  <g fill="#fff" fill-opacity=".34" stroke="#8353b4" stroke-opacity=".27" stroke-width="1.3">
    <g transform="translate(65 65)">
      <ellipse cy="-15" rx="5" ry="10"/><ellipse cy="-15" rx="5" ry="10" transform="rotate(45)"/>
      <ellipse cy="-15" rx="5" ry="10" transform="rotate(90)"/><ellipse cy="-15" rx="5" ry="10" transform="rotate(135)"/>
      <ellipse cy="-15" rx="5" ry="10" transform="rotate(180)"/><ellipse cy="-15" rx="5" ry="10" transform="rotate(225)"/>
      <ellipse cy="-15" rx="5" ry="10" transform="rotate(270)"/><ellipse cy="-15" rx="5" ry="10" transform="rotate(315)"/>
      <circle r="5.5" fill="#b99bd5" fill-opacity=".5"/>
    </g>
    <g transform="translate(264 225) scale(.72)">
      <ellipse cy="-15" rx="5" ry="10"/><ellipse cy="-15" rx="5" ry="10" transform="rotate(45)"/>
      <ellipse cy="-15" rx="5" ry="10" transform="rotate(90)"/><ellipse cy="-15" rx="5" ry="10" transform="rotate(135)"/>
      <ellipse cy="-15" rx="5" ry="10" transform="rotate(180)"/><ellipse cy="-15" rx="5" ry="10" transform="rotate(225)"/>
      <ellipse cy="-15" rx="5" ry="10" transform="rotate(270)"/><ellipse cy="-15" rx="5" ry="10" transform="rotate(315)"/>
      <circle r="5.5" fill="#b99bd5" fill-opacity=".5"/>
    </g>
  </g>
</svg>